<svg width="245" height="38" viewBox="0 0 245 38" fill="none" xmlns="http://www.w3.org/2000/svg">
<path d="M17.6238 17.16V17.32C17.6238 17.32 22.7438 18.12 22.7438 22.92C22.7438 26.44 19.8638 29.32 11.8638 29.32C6.74375 29.32 2.26375 29 2.26375 29V6.6C2.26375 6.6 6.74375 6.28 11.7038 6.28C18.9038 6.28 21.7838 9.16 21.7838 12.52C21.7838 16.36 17.6238 17.16 17.6238 17.16ZM10.5838 12.04V14.92H11.7038C12.8238 14.92 13.4638 14.28 13.4638 13.48C13.4638 12.68 12.8238 12.04 11.7038 12.04H10.5838ZM11.8638 23.56C13.1438 23.56 13.7838 22.92 13.7838 21.96C13.7838 21 13.1438 20.36 11.8638 20.36H10.5838V23.56C10.5838 23.56 11.2238 23.56 11.8638 23.56ZM32.8388 11.56C38.2788 11.56 42.2788 15.56 42.2788 20.52C42.2788 23.272 42.2788 26.504 42.2788 29H34.9188L34.2788 27.08C34.2788 27.08 32.9988 29.48 30.1188 29.48C26.5988 29.48 24.3588 27.24 24.3588 24.2C24.3588 21.16 26.5988 18.92 32.0388 18.92H34.5988C34.5988 18.92 34.2788 17.16 31.7188 17.16C30.1188 17.16 28.8388 18.44 28.8388 18.44L26.1188 14.12C26.1188 14.12 28.5188 11.56 32.8388 11.56ZM32.9988 24.36C33.7988 24.36 34.5988 23.56 34.5988 21.64C32.8388 21.64 32.0388 22.44 32.0388 23.4C32.0388 23.88 32.5188 24.36 32.9988 24.36ZM59.4025 23.88C59.4025 26.92 56.8425 29.48 51.8825 29.48C46.6025 29.48 43.8825 26.44 43.8825 26.44L46.2825 22.6C46.2825 22.6 47.8825 24.2 50.2825 24.2C50.7625 24.2 51.0825 23.88 51.0825 23.56C51.0825 22.6 44.8425 22.28 44.8425 17.16C44.8425 14.12 47.4025 11.56 52.3625 11.56C56.6825 11.56 59.4025 14.28 59.4025 14.28L57.0025 18.12C57.0025 18.12 55.7225 16.84 53.9625 16.84C53.4825 16.84 53.1625 17.16 53.1625 17.48C53.1625 18.44 59.4025 18.76 59.4025 23.88ZM80.3513 12.04L75.8713 20.36L80.9913 29H72.5113L69.3113 22.28V29H61.6313V5.32H69.3113V18.44L72.0313 12.04H80.3513ZM89.9513 11.56C94.9113 11.56 98.9113 15.56 98.9113 20.52C98.9113 20.648 98.9113 21.992 98.9113 22.12H88.6713C88.6713 22.12 88.9913 23.88 91.5513 23.88C93.1513 23.88 94.4313 22.6 94.4313 22.6L97.1513 26.92C97.1513 26.92 94.7513 29.48 90.4313 29.48C84.9913 29.48 80.9913 25.48 80.9913 20.52C80.9913 15.56 84.9913 11.56 89.9513 11.56ZM88.5113 19.08H91.3913C91.3913 17.8 90.7513 17.16 89.9513 17.16C89.1513 17.16 88.5113 17.8 88.5113 19.08ZM102.443 18.44H100.203V12.04H102.443V6.6H110.123V12.04H113.003V18.44H110.123V21.16C110.123 22.44 110.763 23.08 111.723 23.08C112.363 23.08 113.003 22.92 113.003 22.92V29.32C113.003 29.32 111.723 29.64 110.123 29.64C105.323 29.64 102.443 26.76 102.443 21.16V18.44ZM123.394 22.92C124.194 22.92 124.674 22.44 124.674 21.96C124.674 20.36 116.034 20.36 116.034 13.32C116.034 9.64 119.554 6.12 125.154 6.12C130.914 6.12 133.794 9.64 133.794 9.64L130.754 14.44C130.754 14.44 128.834 12.68 126.594 12.68C125.794 12.68 125.314 13.16 125.314 13.64C125.314 15.24 133.954 15.24 133.954 22.28C133.954 25.96 130.434 29.48 124.834 29.48C117.794 29.48 114.914 25.64 114.914 25.64L117.954 20.84C117.954 20.84 120.194 22.92 123.394 22.92ZM137.474 18.44H135.234V12.04H137.474V6.6H145.154V12.04H148.034V18.44H145.154V21.16C145.154 22.44 145.794 23.08 146.754 23.08C147.394 23.08 148.034 22.92 148.034 22.92V29.32C148.034 29.32 146.754 29.64 145.154 29.64C140.354 29.64 137.474 26.76 137.474 21.16V18.44ZM158.745 11.56C164.185 11.56 168.185 15.56 168.185 20.52C168.185 23.272 168.185 26.504 168.185 29H160.825L160.185 27.08C160.185 27.08 158.905 29.48 156.025 29.48C152.505 29.48 150.265 27.24 150.265 24.2C150.265 21.16 152.505 18.92 157.945 18.92H160.505C160.505 18.92 160.185 17.16 157.625 17.16C156.025 17.16 154.745 18.44 154.745 18.44L152.025 14.12C152.025 14.12 154.425 11.56 158.745 11.56ZM158.905 24.36C159.705 24.36 160.505 23.56 160.505 21.64C158.745 21.64 157.945 22.44 157.945 23.4C157.945 23.88 158.425 24.36 158.905 24.36ZM172.036 18.44H169.796V12.04H172.036V6.6H179.716V12.04H182.596V18.44H179.716V21.16C179.716 22.44 180.356 23.08 181.316 23.08C181.956 23.08 182.596 22.92 182.596 22.92V29.32C182.596 29.32 181.316 29.64 179.716 29.64C174.916 29.64 172.036 26.76 172.036 21.16V18.44ZM200.028 23.88C200.028 26.92 197.468 29.48 192.508 29.48C187.228 29.48 184.508 26.44 184.508 26.44L186.908 22.6C186.908 22.6 188.508 24.2 190.908 24.2C191.388 24.2 191.708 23.88 191.708 23.56C191.708 22.6 185.468 22.28 185.468 17.16C185.468 14.12 188.028 11.56 192.988 11.56C197.308 11.56 200.028 14.28 200.028 14.28L197.628 18.12C197.628 18.12 196.348 16.84 194.588 16.84C194.108 16.84 193.788 17.16 193.788 17.48C193.788 18.44 200.028 18.76 200.028 23.88Z" fill="#F26419"/>
<path d="M227 1L231.041 13.4377H244.119L233.539 21.1246L237.58 33.5623L227 25.8754L216.42 33.5623L220.461 21.1246L209.881 13.4377H222.959L227 1Z" fill="#F26419"/>
</svg>
